<svg version="1.1" id="Layer_1" xmlns="http://www.w3.org/2000/svg" xmlns:xlink="http://www.w3.org/1999/xlink" x="0px" y="0px"
	 width="100%" viewBox="0 0 72 68" enable-background="new 0 0 72 68" xml:space="preserve">
<path fill="#0F0D0D" opacity="1.000000" stroke="none" 
	d="
M42.000000,69.000000 
	C28.000000,69.000000 14.500000,69.000000 1.000000,69.000000 
	C1.000000,46.333332 1.000000,23.666666 1.000000,1.000000 
	C25.000000,1.000000 49.000000,1.000000 73.000000,1.000000 
	C73.000000,23.666666 73.000000,46.333332 73.000000,69.000000 
	C62.833332,69.000000 52.666668,69.000000 42.000000,69.000000 
M8.985415,53.786671 
	C8.943725,55.394829 8.213465,57.788235 8.987088,58.466614 
	C11.491464,60.662670 19.303745,58.486286 21.101593,55.440403 
	C27.699621,44.262165 34.040039,32.922222 40.971058,21.955118 
	C43.587730,17.814703 43.681725,14.787272 40.778923,10.926875 
	C37.596626,6.694785 37.087284,6.462949 34.359848,11.029703 
	C25.995396,25.034933 17.686752,39.073498 8.985415,53.786671 
M34.679958,39.153316 
	C30.966137,45.477917 27.252316,51.802517 23.480394,58.226067 
	C30.826731,60.323860 35.073780,58.481045 37.971756,52.205734 
	C40.746422,46.197430 44.606945,40.690247 47.994907,34.965591 
	C51.969391,28.249884 51.720860,26.682812 45.429878,20.913584 
	C41.937336,26.838991 38.493801,32.681255 34.679958,39.153316 
M52.826942,51.346977 
	C53.581959,50.052792 54.332142,48.755760 55.092793,47.464893 
	C59.247154,40.414719 59.108860,39.372086 53.049313,33.166451 
	C48.090706,41.529434 43.164902,49.837090 38.150459,58.294247 
	C45.568794,60.377438 50.124073,58.405796 52.826942,51.346977 
M56.150776,58.967888 
	C58.960758,58.963745 61.822258,59.260769 64.553047,58.793667 
	C65.521263,58.628052 67.116013,56.166656 66.808022,55.497936 
	C65.208145,52.024197 63.086063,48.790966 60.761192,44.816322 
	C58.211575,49.191040 56.117615,52.549217 54.332336,56.064175 
	C54.012115,56.694641 54.966328,57.972404 56.150776,58.967888 
z"/>
<path fill="#C60000" opacity="1.000000" stroke="none" 
	d="
M9.170912,53.442886 
	C17.686752,39.073498 25.995396,25.034933 34.359848,11.029703 
	C37.087284,6.462949 37.596626,6.694785 40.778923,10.926875 
	C43.681725,14.787272 43.587730,17.814703 40.971058,21.955118 
	C34.040039,32.922222 27.699621,44.262165 21.101593,55.440403 
	C19.303745,58.486286 11.491464,60.662670 8.987088,58.466614 
	C8.213465,57.788235 8.943725,55.394829 9.170912,53.442886 
z"/>
<path fill="#C50000" opacity="1.000000" stroke="none" 
	d="
M34.865112,38.838417 
	C38.493801,32.681255 41.937336,26.838991 45.429878,20.913584 
	C51.720860,26.682812 51.969391,28.249884 47.994907,34.965591 
	C44.606945,40.690247 40.746422,46.197430 37.971756,52.205734 
	C35.073780,58.481045 30.826731,60.323860 23.480394,58.226067 
	C27.252316,51.802517 30.966137,45.477917 34.865112,38.838417 
z"/>
<path fill="#C40101" opacity="1.000000" stroke="none" 
	d="
M52.626984,51.656197 
	C50.124073,58.405796 45.568794,60.377438 38.150459,58.294247 
	C43.164902,49.837090 48.090706,41.529434 53.049313,33.166451 
	C59.108860,39.372086 59.247154,40.414719 55.092793,47.464893 
	C54.332142,48.755760 53.581959,50.052792 52.626984,51.656197 
z"/>
<path fill="#C30101" opacity="1.000000" stroke="none" 
	d="
M55.741447,58.959595 
	C54.966328,57.972404 54.012115,56.694641 54.332336,56.064175 
	C56.117615,52.549217 58.211575,49.191040 60.761192,44.816322 
	C63.086063,48.790966 65.208145,52.024197 66.808022,55.497936 
	C67.116013,56.166656 65.521263,58.628052 64.553047,58.793667 
	C61.822258,59.260769 58.960758,58.963745 55.741447,58.959595 
z"/>
</svg>